<?xml version="1.0" encoding="UTF-8" standalone="no"?>
<!-- Created with Inkscape (http://www.inkscape.org/) -->

<svg
   version="1.1"
   id="svg1"
   width="1920"
   height="1080"
   viewBox="0 0 1920 1080"
   sodipodi:docname="background.svg"
   inkscape:version="1.3.2 (091e20ef0f, 2023-11-25)"
   inkscape:export-filename="background.png"
   inkscape:export-xdpi="96"
   inkscape:export-ydpi="96"
   xml:space="preserve"
   xmlns:inkscape="http://www.inkscape.org/namespaces/inkscape"
   xmlns:sodipodi="http://sodipodi.sourceforge.net/DTD/sodipodi-0.dtd"
   xmlns="http://www.w3.org/2000/svg"
   xmlns:svg="http://www.w3.org/2000/svg"><defs
     id="defs1" /><sodipodi:namedview
     id="namedview1"
     pagecolor="#ffffff"
     bordercolor="#000000"
     borderopacity="0.25"
     inkscape:showpageshadow="2"
     inkscape:pageopacity="0.0"
     inkscape:pagecheckerboard="0"
     inkscape:deskcolor="#d1d1d1"
     inkscape:zoom="0.47369792"
     inkscape:cx="-169.93953"
     inkscape:cy="467.59758"
     inkscape:window-width="2560"
     inkscape:window-height="1364"
     inkscape:window-x="0"
     inkscape:window-y="0"
     inkscape:window-maximized="1"
     inkscape:current-layer="g1"
     showgrid="true"><inkscape:grid
       id="grid2"
       units="px"
       originx="0"
       originy="0"
       spacingx="1"
       spacingy="1"
       empcolor="#0099e5"
       empopacity="0.30196078"
       color="#0099e5"
       opacity="0.14901961"
       empspacing="4"
       dotted="false"
       gridanglex="30"
       gridanglez="30"
       visible="true"
       enabled="true" /></sodipodi:namedview><g
     inkscape:groupmode="layer"
     inkscape:label="Image"
     id="g1"><rect
       style="display:inline;fill:#000000;fill-opacity:1;stroke:none;stroke-width:3"
       id="rect1"
       width="1920"
       height="1080"
       x="0"
       y="0" /><text
       xml:space="preserve"
       style="font-style:normal;font-variant:normal;font-weight:bold;font-stretch:normal;font-size:63.6404px;line-height:1;font-family:Inter;-inkscape-font-specification:'Inter Bold';letter-spacing:-4.77303px;word-spacing:0px;fill:#ffffff;fill-opacity:1;stroke:none;stroke-width:3.57977"
       x="285.07904"
       y="314.78098"
       id="text1"><tspan
         sodipodi:role="line"
         id="tspan1"
         x="285.07904"
         y="314.78098"
         style="font-style:normal;font-variant:normal;font-weight:bold;font-stretch:normal;font-size:63.6404px;font-family:Inter;-inkscape-font-specification:'Inter Bold';letter-spacing:-4.77303px;fill:#ffffff;fill-opacity:1;stroke:none;stroke-width:3.57977">Choose an operating system to start</tspan></text><text
       xml:space="preserve"
       style="font-size:18.6667px;line-height:1;font-family:'Red Hat Display';-inkscape-font-specification:'Red Hat Display';letter-spacing:-1.25px;word-spacing:0px;fill:#bababa;fill-opacity:1;stroke:none;stroke-width:3"
       x="286.49609"
       y="1038.2188"
       id="text1-3"><tspan
         sodipodi:role="line"
         id="tspan1-5"
         x="286.49609"
         y="1038.2188"
         style="font-style:normal;font-variant:normal;font-weight:500;font-stretch:normal;font-size:18.6667px;font-family:Inter;-inkscape-font-specification:'Inter Medium';letter-spacing:-1.25px;fill:#bababa;fill-opacity:1;stroke:none">Use the up and down keys to select which entry is highlighted. Press enter to boot the selected OS, 'e' to edit the commands before booting or 'c' for a command-line. </tspan></text><path
       id="path20"
       style="display:inline;fill:#31363b;fill-opacity:1;stroke-width:2.73862"
       d="M 0,0 H 1920 V 160 H 0 Z"
       sodipodi:nodetypes="ccccc"
       inkscape:label="rect2" /><g
       id="g2"
       transform="matrix(6.0348133,0,0,6.0348133,265.88806,41.744423)"><g
         transform="matrix(0.39943582,0,0,0.37930758,-1.6156851,-13.504389)"
         fill="#ffffff"
         stroke-width="5.70709"
         style="white-space:pre;paint-order:stroke fill markers"
         aria-label="filotimo"
         id="g8"><path
           d="m 68.413794,43.915713 c 0.689166,0 1.221703,0.06265 1.691588,0.187954 0.125303,0.03133 0.21928,-0.06265 0.21928,-0.21928 v -2.161473 c 0,-0.125303 -0.06265,-0.250606 -0.21928,-0.250606 -0.689165,-0.156629 -1.660262,-0.281931 -2.537381,-0.281931 -2.380754,0 -4.761507,1.315679 -4.761507,4.918135 v 1.253028 h -2.25545 c -0.156629,0 -0.250606,0.09398 -0.250606,0.250605 v 2.192799 c 0,0.156629 0.09398,0.250606 0.250606,0.250606 h 2.25545 v 6.233814 l -0.125303,6.954306 c 0,0.187954 0.09398,0.250606 0.250606,0.250606 h 3.414501 c 0.156629,0 0.250606,-0.06265 0.250606,-0.250606 l -0.09398,-6.954306 V 50.05555 h 3.57113 c 0.156628,0 0.250605,-0.09398 0.250605,-0.250606 v -2.192799 c 0,-0.156628 -0.09398,-0.250605 -0.250605,-0.250605 h -3.57113 v -0.939771 c 0,-1.848217 0.751817,-2.506056 1.910867,-2.506056 z"
           id="path1" /><path
           d="m 74.753934,42.067496 h -3.320525 c -0.156628,0 -0.250605,0.09398 -0.250605,0.250606 v 3.101244 c 0,0.156629 0.09398,0.250606 0.250605,0.250606 h 3.320525 c 0.156628,0 0.250605,-0.09398 0.250605,-0.250606 v -3.101244 c 0,-0.156629 -0.09398,-0.250606 -0.250605,-0.250606 z m 0.156628,13.219446 0.09398,-7.674797 c 0,-0.187954 -0.09398,-0.250605 -0.250605,-0.250605 h -3.35185 c -0.156629,0 -0.250606,0.06265 -0.250606,0.250605 l 0.06265,7.674797 -0.06265,7.956728 c 0,0.187954 0.09398,0.250606 0.250606,0.250606 h 3.35185 c 0.156628,0 0.250605,-0.06265 0.250605,-0.250606 z"
           id="path2" /><path
           d="m 79.669966,52.436303 0.125303,-10.619412 c 0,-0.187955 -0.09398,-0.250606 -0.250605,-0.250606 h -3.257873 c -0.156629,0 -0.250606,0.06265 -0.250606,0.250606 l 0.125303,10.650738 -0.125303,10.776041 c 0,0.187954 0.09398,0.250606 0.250606,0.250606 h 3.257873 c 0.156628,0 0.250605,-0.06265 0.250605,-0.250606 z"
           id="path3" /><path
           d="m 88.539318,63.870184 c 5.074764,0 7.925403,-3.383176 7.925403,-8.457939 0,-5.106089 -2.850639,-8.426614 -7.925403,-8.426614 -5.106089,0 -7.988053,3.383176 -7.988053,8.489265 0,5.106089 2.881964,8.395288 7.988053,8.395288 z m 0,-2.537382 c -2.756661,0 -4.134992,-1.973519 -4.134992,-5.857906 0,-3.853061 1.315679,-5.920557 4.103667,-5.951883 2.725336,0 4.072341,2.098822 4.072341,5.951883 0,3.884387 -1.31568,5.857906 -4.041016,5.857906 z"
           id="path4" /><path
           d="m 101.90878,43.320524 h -3.289198 c -0.156629,0 -0.250606,0.06265 -0.250606,0.250606 l 0.03133,3.79041 H 96.55209 c -0.156629,0 -0.250606,0.09398 -0.250606,0.250605 v 2.192799 c 0,0.156629 0.09398,0.250606 0.250606,0.250606 h 1.848216 l -0.03133,8.865173 c 0,3.602456 2.286774,4.855484 4.824154,4.855484 0.87712,0 1.84822,-0.21928 2.60004,-0.43856 0.15663,-0.03133 0.21928,-0.156628 0.21928,-0.281931 v -2.036171 c 0,-0.156628 -0.094,-0.250605 -0.28193,-0.187954 -0.46989,0.125303 -1.06508,0.21928 -1.72292,0.21928 -1.19037,0 -1.87954,-0.532537 -1.87954,-2.224125 l -0.0313,-8.771196 h 3.69644 c 0.15663,0 0.2506,-0.09398 0.2506,-0.250606 v -2.192799 c 0,-0.156628 -0.094,-0.250605 -0.2506,-0.250605 h -3.69644 l 0.0627,-3.79041 c 0,-0.187954 -0.094,-0.250606 -0.25061,-0.250606 z"
           id="path5" /><path
           d="m 110.47111,42.067496 h -3.32052 c -0.15663,0 -0.25061,0.09398 -0.25061,0.250606 v 3.101244 c 0,0.156629 0.094,0.250606 0.25061,0.250606 h 3.32052 c 0.15663,0 0.25061,-0.09398 0.25061,-0.250606 v -3.101244 c 0,-0.156629 -0.094,-0.250606 -0.25061,-0.250606 z m 0.15663,13.219446 0.094,-7.674797 c 0,-0.187954 -0.094,-0.250605 -0.25061,-0.250605 h -3.35185 c -0.15662,0 -0.2506,0.06265 -0.2506,0.250605 l 0.0626,7.674797 -0.0626,7.956728 c 0,0.187954 0.094,0.250606 0.2506,0.250606 h 3.35185 c 0.15663,0 0.25061,-0.06265 0.25061,-0.250606 z"
           id="path6" /><path
           d="m 134.8359,57.41709 v -4.072341 c 0,-4.354273 -1.87954,-6.359118 -5.07476,-6.359118 -2.09882,0 -3.72776,0.908446 -4.98079,3.226547 -0.75181,-2.192799 -2.38075,-3.226547 -4.6362,-3.226547 -2.25545,0 -3.75908,1.159051 -4.82416,2.819313 l 0.094,-2.192799 c 0,-0.187954 -0.094,-0.250605 -0.25061,-0.250605 h -3.16389 c -0.15663,0 -0.25061,0.06265 -0.25061,0.250605 l 0.0313,9.804945 -0.094,5.82658 c 0,0.187954 0.094,0.250606 0.25061,0.250606 h 3.38317 c 0.15663,0 0.25061,-0.06265 0.25061,-0.250606 l -0.0627,-5.82658 v -2.694011 c 0.31325,-3.163895 1.81689,-4.94946 3.4145,-4.94946 1.59761,0 2.60003,1.096399 2.60003,3.633781 v 4.00969 l -0.094,5.82658 c 0,0.187954 0.094,0.250606 0.25061,0.250606 h 3.35185 c 0.15663,0 0.25061,-0.06265 0.25061,-0.250606 l -0.0627,-5.82658 v -3.414502 c 0.46989,-2.69401 1.87955,-4.228969 3.32053,-4.228969 1.59761,0 2.60003,1.096399 2.60003,3.633781 v 4.00969 l -0.0626,5.82658 c 0,0.187954 0.094,0.250606 0.25061,0.250606 h 3.32052 c 0.15663,0 0.25061,-0.06265 0.25061,-0.250606 z"
           id="path7" /><path
           d="m 143.61755,63.870184 c 5.07477,0 7.9254,-3.383176 7.9254,-8.457939 0,-5.106089 -2.85063,-8.426614 -7.9254,-8.426614 -5.10609,0 -7.98805,3.383176 -7.98805,8.489265 0,5.106089 2.88196,8.395288 7.98805,8.395288 z m 0,-2.537382 c -2.75666,0 -4.13499,-1.973519 -4.13499,-5.857906 0,-3.853061 1.31568,-5.920557 4.10367,-5.951883 2.72533,0 4.07234,2.098822 4.07234,5.951883 0,3.884387 -1.31568,5.857906 -4.04102,5.857906 z"
           id="path8" /></g><g
         transform="matrix(1.5000004,0,0,1.5000004,2.7511997,-3.185854)"
         fill="#ffffff"
         id="g17"><path
           d="m 6.35,3.7041666 a 2.6458316,2.6458316 0 0 0 -2.291333,1.3229167 2.6458316,2.6458316 0 0 0 0,2.6458334 A 2.6458316,2.6458316 0 0 0 6.35,8.9958334 2.6458326,2.6458326 0 0 0 8.6413331,7.6729167 a 2.6458326,2.6458326 0 0 0 0,-2.6458334 A 2.6458326,2.6458326 0 0 0 6.35,3.7041666 Z"
           id="path9" /><path
           d="m 8.9958339,3.7041674 a 2.6458326,2.6458326 0 0 1 2.2913581,1.3229163 2.6458326,2.6458326 0 0 1 0,2.6458326 2.6458326,2.6458326 0 0 1 -2.2913581,1.3229163 V 6.35 Z"
           id="path10" /><path
           d="m 3.7041664,8.9958317 a 2.6458316,2.6458316 0 0 1 -2.2913575,-1.3229158 2.6458316,2.6458316 0 0 1 0,-2.6458318 2.6458316,2.6458316 0 0 1 2.2913575,-1.3229158 v 2.6458316 z"
           id="path11" /><path
           d="M 1.0475359,3.70417 A 2.6566303,2.6567354 0 0 1 3.7041662,1.0474346 V 3.70417 Z"
           id="path12" /><path
           transform="rotate(-90)"
           d="M -11.652464,3.7041664 A 2.6566303,2.6567354 0 0 1 -8.9958334,1.047431 v 2.6567354 z"
           id="path13" /><path
           transform="scale(-1)"
           d="m -11.652464,-8.9958324 a 2.6566303,2.6567354 0 0 1 2.6566306,-2.6567356 v 2.6567356 z"
           id="path14" /><path
           transform="rotate(90)"
           d="m 1.0475368,-8.9958334 a 2.6566303,2.6567354 0 0 1 2.6566303,-2.6567356 v 2.6567356 z"
           id="path15" /><path
           d="M 6.3391479,8.9958333 A 2.6566303,2.6567354 0 0 1 3.6824626,11.652519 H 8.9958333 A 2.6567354,2.6566303 0 0 1 6.3391479,8.9958333 Z"
           id="path16" /><path
           d="M 6.3500001,3.7041666 A 2.6566303,2.6567354 0 0 1 9.0066854,1.0474809 H 3.6933147 a 2.6567354,2.6566303 0 0 1 2.6566854,2.6566857 z"
           id="path17" /></g></g></g></svg>
