<?xml version="1.0" encoding="UTF-8" standalone="no"?>
<!-- Created with Inkscape (http://www.inkscape.org/) -->

<svg
   version="1.1"
   id="svg1"
   width="1920"
   height="1080"
   viewBox="0 0 1920 1080"
   sodipodi:docname="background.svg"
   inkscape:version="1.3.2 (091e20ef0f, 2023-11-25)"
   inkscape:export-filename="background.png"
   inkscape:export-xdpi="96"
   inkscape:export-ydpi="96"
   xml:space="preserve"
   xmlns:inkscape="http://www.inkscape.org/namespaces/inkscape"
   xmlns:sodipodi="http://sodipodi.sourceforge.net/DTD/sodipodi-0.dtd"
   xmlns="http://www.w3.org/2000/svg"
   xmlns:svg="http://www.w3.org/2000/svg"><defs
     id="defs1" /><sodipodi:namedview
     id="namedview1"
     pagecolor="#ffffff"
     bordercolor="#000000"
     borderopacity="0.25"
     inkscape:showpageshadow="2"
     inkscape:pageopacity="0.0"
     inkscape:pagecheckerboard="0"
     inkscape:deskcolor="#d1d1d1"
     inkscape:zoom="0.94739584"
     inkscape:cx="68.081363"
     inkscape:cy="116.63551"
     inkscape:window-width="2560"
     inkscape:window-height="1364"
     inkscape:window-x="0"
     inkscape:window-y="0"
     inkscape:window-maximized="1"
     inkscape:current-layer="g1"
     showgrid="true"><inkscape:grid
       id="grid2"
       units="px"
       originx="0"
       originy="0"
       spacingx="1"
       spacingy="1"
       empcolor="#0099e5"
       empopacity="0.30196078"
       color="#0099e5"
       opacity="0.14901961"
       empspacing="4"
       dotted="false"
       gridanglex="30"
       gridanglez="30"
       visible="true"
       enabled="true" /></sodipodi:namedview><g
     inkscape:groupmode="layer"
     inkscape:label="Image"
     id="g1"><rect
       style="display:inline;fill:#000000;fill-opacity:1;stroke:none;stroke-width:3"
       id="rect1"
       width="1920"
       height="1080"
       x="0"
       y="0" /><text
       xml:space="preserve"
       style="font-style:normal;font-variant:normal;font-weight:bold;font-stretch:normal;font-size:63.6404px;line-height:1;font-family:Inter;-inkscape-font-specification:'Inter Bold';letter-spacing:-4.77303px;word-spacing:0px;fill:#ffffff;fill-opacity:1;stroke:none;stroke-width:3.57977"
       x="285.07904"
       y="314.78098"
       id="text1"><tspan
         sodipodi:role="line"
         id="tspan1"
         x="285.07904"
         y="314.78098"
         style="font-style:normal;font-variant:normal;font-weight:bold;font-stretch:normal;font-size:63.6404px;font-family:Inter;-inkscape-font-specification:'Inter Bold';letter-spacing:-4.77303px;fill:#ffffff;fill-opacity:1;stroke:none;stroke-width:3.57977">Choose an operating system to start</tspan></text><text
       xml:space="preserve"
       style="font-size:18.6667px;line-height:1;font-family:'Red Hat Display';-inkscape-font-specification:'Red Hat Display';letter-spacing:-1.25px;word-spacing:0px;fill:#bababa;fill-opacity:1;stroke:none;stroke-width:3"
       x="286.49609"
       y="1038.2188"
       id="text1-3"><tspan
         sodipodi:role="line"
         id="tspan1-5"
         x="286.49609"
         y="1038.2188"
         style="font-style:normal;font-variant:normal;font-weight:500;font-stretch:normal;font-size:18.6667px;font-family:Inter;-inkscape-font-specification:'Inter Medium';letter-spacing:-1.25px;fill:#bababa;fill-opacity:1;stroke:none">Use the up and down keys to select which entry is highlighted. Press enter to boot the selected OS, 'e' to edit the commands before booting or 'c' for a command-line. </tspan></text><path
       id="path20"
       style="display:inline;fill:#31363b;fill-opacity:1;stroke-width:2.93684"
       d="M 0,0 H 1920 V 184 H 0 Z"
       sodipodi:nodetypes="ccccc"
       inkscape:label="rect2" /><g
       fill="#ffffff"
       id="g22"
       transform="matrix(10.185855,0,0,10.185855,277.22052,29.441529)"><g
         transform="matrix(0.32105667,0,0,0.30969639,-3.3803245,-8.9677223)"
         stroke-width="5.70709"
         style="white-space:pre;paint-order:stroke fill markers"
         aria-label="filotimo linux"
         id="g12"><path
           d="m 56.301624,43 c 0.528,0 0.936,0.048 1.296,0.144 0.096,0.024 0.168,-0.048 0.168,-0.168 V 41.32 c 0,-0.096 -0.048,-0.192 -0.168,-0.192 -0.528,-0.12 -1.272,-0.216 -1.944,-0.216 -1.824,0 -3.648,1.008 -3.648,3.768 v 0.96 h -1.728 c -0.12,0 -0.192,0.072 -0.192,0.192 v 1.68 c 0,0.12 0.072,0.192 0.192,0.192 h 1.728 v 4.776 l -0.096,5.328 c 0,0.144 0.072,0.192 0.192,0.192 h 2.616 c 0.12,0 0.192,-0.048 0.192,-0.192 l -0.072,-5.328 v -4.776 h 2.736 c 0.12,0 0.192,-0.072 0.192,-0.192 v -1.68 c 0,-0.12 -0.072,-0.192 -0.192,-0.192 h -2.736 v -0.72 c 0,-1.416 0.576,-1.92 1.464,-1.92 z"
           id="path1" /><path
           d="m 61.059417,41.584 h -2.544 c -0.12,0 -0.192,0.072 -0.192,0.192 v 2.376 c 0,0.12 0.072,0.192 0.192,0.192 h 2.544 c 0.12,0 0.192,-0.072 0.192,-0.192 v -2.376 c 0,-0.12 -0.072,-0.192 -0.192,-0.192 z m 0.12,10.128 0.072,-5.88 c 0,-0.144 -0.072,-0.192 -0.192,-0.192 h -2.568 c -0.12,0 -0.192,0.048 -0.192,0.192 l 0.048,5.88 -0.048,6.096 c 0,0.144 0.072,0.192 0.192,0.192 h 2.568 c 0.12,0 0.192,-0.048 0.192,-0.192 z"
           id="path2" /><path
           d="m 64.605547,49.528 0.096,-8.136 c 0,-0.144 -0.072,-0.192 -0.192,-0.192 h -2.496 c -0.12,0 -0.192,0.048 -0.192,0.192 l 0.096,8.16 -0.096,8.256 c 0,0.144 0.072,0.192 0.192,0.192 h 2.496 c 0.12,0 0.192,-0.048 0.192,-0.192 z"
           id="path3" /><path
           d="m 71.240561,58.288 c 3.888,0 6.072,-2.592 6.072,-6.48 0,-3.912 -2.184,-6.456 -6.072,-6.456 -3.912,0 -6.12,2.592 -6.12,6.504 0,3.912 2.208,6.432 6.12,6.432 z m 0,-1.944 c -2.112,0 -3.168,-1.512 -3.168,-4.488 0,-2.952 1.008,-4.536 3.144,-4.56 2.088,0 3.12,1.608 3.12,4.56 0,2.976 -1.008,4.488 -3.096,4.488 z"
           id="path4" /><path
           d="m 81.28416,42.544 h -2.52 c -0.12,0 -0.192,0.048 -0.192,0.192 l 0.024,2.904 h -1.416 c -0.12,0 -0.192,0.072 -0.192,0.192 v 1.68 c 0,0.12 0.072,0.192 0.192,0.192 h 1.416 l -0.024,6.792 c 0,2.76 1.752,3.72 3.696,3.72 0.672,0 1.416,-0.168 1.992,-0.336 0.12,-0.024 0.168,-0.12 0.168,-0.216 v -1.56 c 0,-0.12 -0.072,-0.192 -0.216,-0.144 -0.36,0.096 -0.816,0.168 -1.32,0.168 -0.912,0 -1.44,-0.408 -1.44,-1.704 l -0.024,-6.72 h 2.832 c 0.12,0 0.192,-0.072 0.192,-0.192 v -1.68 c 0,-0.12 -0.072,-0.192 -0.192,-0.192 h -2.832 l 0.048,-2.904 c 0,-0.144 -0.072,-0.192 -0.192,-0.192 z"
           id="path5" /><path
           d="m 87.744023,41.584 h -2.544 c -0.12,0 -0.192,0.072 -0.192,0.192 v 2.376 c 0,0.12 0.072,0.192 0.192,0.192 h 2.544 c 0.12,0 0.192,-0.072 0.192,-0.192 v -2.376 c 0,-0.12 -0.072,-0.192 -0.192,-0.192 z m 0.12,10.128 0.072,-5.88 c 0,-0.144 -0.072,-0.192 -0.192,-0.192 h -2.568 c -0.12,0 -0.192,0.048 -0.192,0.192 l 0.048,5.88 -0.048,6.096 c 0,0.144 0.072,0.192 0.192,0.192 h 2.568 c 0.12,0 0.192,-0.048 0.192,-0.192 z"
           id="path6" /><path
           d="m 106.21163,53.344 v -3.12 c 0,-3.336 -1.44,-4.872 -3.888,-4.872 -1.608,0 -2.856002,0.696 -3.816002,2.472 -0.576,-1.68 -1.824,-2.472 -3.552,-2.472 -1.728,0 -2.88,0.888 -3.696,2.16 l 0.072,-1.68 c 0,-0.144 -0.072,-0.192 -0.192,-0.192 h -2.424 c -0.12,0 -0.192,0.048 -0.192,0.192 l 0.024,7.512 -0.072,4.464 c 0,0.144 0.072,0.192 0.192,0.192 h 2.592 c 0.12,0 0.192,-0.048 0.192,-0.192 l -0.048,-4.464 V 51.28 c 0.24,-2.424 1.392,-3.792 2.616,-3.792 1.224,0 1.992,0.84 1.992,2.784 v 3.072 l -0.072,4.464 c 0,0.144 0.072,0.192 0.192,0.192 h 2.568 c 0.12,0 0.192,-0.048 0.192,-0.192 l -0.048,-4.464 v -2.616 c 0.36,-2.064 1.440002,-3.24 2.544002,-3.24 1.224,0 1.992,0.84 1.992,2.784 v 3.072 l -0.048,4.464 c 0,0.144 0.072,0.192 0.192,0.192 h 2.544 c 0.12,0 0.192,-0.048 0.192,-0.192 z"
           id="path7" /><path
           d="m 112.83952,58.288 c 3.888,0 6.072,-2.592 6.072,-6.48 0,-3.912 -2.184,-6.456 -6.072,-6.456 -3.912,0 -6.12,2.592 -6.12,6.504 0,3.912 2.208,6.432 6.12,6.432 z m 0,-1.944 c -2.112,0 -3.168,-1.512 -3.168,-4.488 0,-2.952 1.008,-4.536 3.144,-4.56 2.088,0 3.12,1.608 3.12,4.56 0,2.976 -1.008,4.488 -3.096,4.488 z m 12.3592,-6.816 0.096,-8.136 c 0,-0.144 -0.072,-0.192 -0.192,-0.192 h -2.496 c -0.12,0 -0.192,0.048 -0.192,0.192 l 0.096,8.16 -0.096,8.256 c 0,0.144 0.072,0.192 0.192,0.192 h 2.496 c 0.12,0 0.192,-0.048 0.192,-0.192 z"
           id="path8" /><path
           d="m 128.71434,41.584 h -2.544 c -0.12,0 -0.192,0.072 -0.192,0.192 v 2.376 c 0,0.12 0.072,0.192 0.192,0.192 h 2.544 c 0.12,0 0.192,-0.072 0.192,-0.192 v -2.376 c 0,-0.12 -0.072,-0.192 -0.192,-0.192 z m 0.12,10.128 0.072,-5.88 c 0,-0.144 -0.072,-0.192 -0.192,-0.192 h -2.568 c -0.12,0 -0.192,0.048 -0.192,0.192 l 0.048,5.88 -0.048,6.096 c 0,0.144 0.072,0.192 0.192,0.192 h 2.568 c 0.12,0 0.192,-0.048 0.192,-0.192 z"
           id="path9" /><path
           d="m 132.4651,52.72 v -1.44 c 0.24,-2.52 1.608,-3.792 3.048,-3.792 1.32,0 2.256,0.96 2.256,2.784 v 2.448 l -0.048,5.088 c 0,0.144 0.072,0.192 0.192,0.192 h 2.544 c 0.12,0 0.192,-0.048 0.192,-0.192 l -0.048,-5.088 v -2.496 c 0,-3.144 -1.656,-4.872 -4.224,-4.872 -1.848,0 -3.264,0.984 -4.056,2.16 l 0.072,-1.68 c 0,-0.144 -0.072,-0.192 -0.192,-0.192 h -2.424 c -0.12,0 -0.192,0.048 -0.192,0.192 l 0.024,6.408 -0.072,5.568 c 0,0.144 0.072,0.192 0.192,0.192 h 2.592 c 0.12,0 0.192,-0.048 0.192,-0.192 z"
           id="path10" /><path
           d="m 145.38293,58.288 c 1.848,0 3.24,-0.984 4.056,-2.16 l -0.072,1.68 c 0,0.144 0.072,0.192 0.192,0.192 h 2.424 c 0.12,0 0.192,-0.048 0.192,-0.192 l -0.048,-6.408 0.072,-5.568 c 0,-0.144 -0.072,-0.192 -0.192,-0.192 h -2.568 c -0.12,0 -0.192,0.048 -0.192,0.192 l 0.024,5.088 v 1.44 c -0.24,2.52 -1.584,3.792 -3.048,3.792 -1.32,0 -2.232,-0.96 -2.232,-2.784 V 50.92 l 0.048,-5.088 c 0,-0.144 -0.072,-0.192 -0.192,-0.192 h -2.544 c -0.12,0 -0.192,0.048 -0.192,0.192 l 0.048,5.088 v 2.496 c 0,3.144 1.632,4.872 4.224,4.872 z"
           id="path11" /><path
           d="m 156.29836,53.272 2.64,4.584 c 0.048,0.072 0.12,0.144 0.216,0.144 h 2.856 c 0.144,0 0.192,-0.12 0.12,-0.24 l -3.792,-6.144 3.48,-5.736 c 0.072,-0.144 0.024,-0.24 -0.12,-0.24 h -2.52 c -0.096,0 -0.168,0.048 -0.216,0.144 l -2.328,4.224 -2.472,-4.248 c -0.048,-0.072 -0.12,-0.12 -0.216,-0.12 h -2.856 c -0.144,0 -0.192,0.12 -0.12,0.24 l 3.6,5.592 -3.84,6.288 c -0.072,0.144 -0.024,0.24 0.12,0.24 h 2.592 c 0.096,0 0.168,-0.072 0.216,-0.144 z"
           id="path12" /></g><g
         transform="translate(0.01085169,-0.01085291)"
         id="g21"><path
           d="m 6.35,3.7041666 a 2.6458316,2.6458316 0 0 0 -2.291333,1.3229167 2.6458316,2.6458316 0 0 0 0,2.6458334 A 2.6458316,2.6458316 0 0 0 6.35,8.9958334 2.6458326,2.6458326 0 0 0 8.6413331,7.6729167 a 2.6458326,2.6458326 0 0 0 0,-2.6458334 A 2.6458326,2.6458326 0 0 0 6.35,3.7041666 Z"
           id="path13" /><path
           d="m 8.9958339,3.7041674 a 2.6458326,2.6458326 0 0 1 2.2913581,1.3229163 2.6458326,2.6458326 0 0 1 0,2.6458326 2.6458326,2.6458326 0 0 1 -2.2913581,1.3229163 V 6.35 Z"
           id="path14" /><path
           d="m 3.7041664,8.9958317 a 2.6458316,2.6458316 0 0 1 -2.2913575,-1.3229158 2.6458316,2.6458316 0 0 1 0,-2.6458318 2.6458316,2.6458316 0 0 1 2.2913575,-1.3229158 v 2.6458316 z"
           id="path15" /><path
           d="M 1.0475359,3.70417 A 2.6566303,2.6567354 0 0 1 3.7041662,1.0474346 V 3.70417 Z"
           id="path16" /><path
           transform="rotate(-90)"
           d="M -11.652464,3.7041664 A 2.6566303,2.6567354 0 0 1 -8.9958334,1.047431 v 2.6567354 z"
           id="path17" /><path
           transform="scale(-1)"
           d="m -11.652464,-8.9958324 a 2.6566303,2.6567354 0 0 1 2.6566306,-2.6567356 v 2.6567356 z"
           id="path18" /><path
           transform="rotate(90)"
           d="m 1.0475368,-8.9958334 a 2.6566303,2.6567354 0 0 1 2.6566303,-2.6567356 v 2.6567356 z"
           id="path19" /><path
           d="M 6.3391479,8.9958333 A 2.6566303,2.6567354 0 0 1 3.6824626,11.652519 H 8.9958333 A 2.6567354,2.6566303 0 0 1 6.3391479,8.9958333 Z"
           id="path20-3" /><path
           d="M 6.3500001,3.7041666 A 2.6566303,2.6567354 0 0 1 9.0066854,1.0474809 H 3.6933147 a 2.6567354,2.6566303 0 0 1 2.6566854,2.6566857 z"
           id="path21" /></g></g></g></svg>
